<svg width="210" height="242" viewBox="0 0 210 242" fill="none" xmlns="http://www.w3.org/2000/svg">
<path fill-rule="evenodd" clip-rule="evenodd" d="M205.058 211.453L180.324 181.787C198.635 161.539 208.729 135.184 208.629 107.885C208.614 48.3502 161.798 0 104.329 0C46.5579 0 0 48.0921 0 107.885C0 167.433 46.816 215.769 104.329 215.769C120.824 215.777 137.069 211.745 151.646 204.026L177.327 234.596C178.847 236.417 180.71 237.921 182.811 239.021C184.911 240.122 187.208 240.798 189.57 241.011C191.933 241.224 194.313 240.97 196.577 240.263C198.841 239.556 200.943 238.41 202.764 236.89C204.585 235.371 206.089 233.507 207.189 231.407C208.29 229.306 208.966 227.009 209.179 224.647C209.392 222.285 209.138 219.904 208.431 217.64C207.724 215.377 206.578 213.274 205.058 211.453ZM104.042 180.41C61.8 180.41 36.1049 147.832 35.8468 109.161C35.8468 70.733 61.5419 38.1697 104.042 38.1697C146.786 38.1697 172.481 70.733 172.481 109.161C172.481 147.832 146.786 180.41 104.042 180.41Z" fill="white"/>
<path fill-rule="evenodd" clip-rule="evenodd" d="M48.8231 80.4117C63.5776 82.6916 73.5 89.015 82.9206 99.4966C83.3225 99.8076 83.5936 100.258 83.6805 100.758L43.231 98.9374C41.1949 103.01 42.471 117.764 43.4747 122.596C44.1261 125.984 45.086 129.306 46.3425 132.519C47.8624 136.591 49.3966 139.143 50.1566 141.437C64.4093 141.681 82.7198 141.437 97.4743 141.437C97.5574 136.878 98.7799 132.412 101.03 128.447C109.433 115.728 125.406 115.728 133.594 125.149C137.422 129.45 139.2 133.537 139.458 141.437H153.697C153.453 136.347 152.678 126.425 151.159 122.094C145.552 106.566 121.893 105.046 107.139 103.01C96.9582 101.733 93.1441 98.4355 87.0645 91.811C86.3045 91.0511 85.0284 90.033 84.2684 89.2731C83.2504 88.255 82.4904 87.7388 81.4724 86.7208C74.5898 81.1287 62.3875 73.8159 53.225 72.4824C52.9669 73.4861 51.6908 75.0204 51.189 76.2965C50.1435 77.4754 49.3613 78.8637 48.8947 80.3687" fill="white"/>
<path fill-rule="evenodd" clip-rule="evenodd" d="M118.539 130.482C120.45 130.482 122.319 131.049 123.908 132.111C125.497 133.173 126.736 134.682 127.467 136.448C128.199 138.214 128.39 140.157 128.017 142.032C127.644 143.906 126.724 145.629 125.372 146.98C124.021 148.332 122.299 149.252 120.424 149.625C118.549 149.998 116.606 149.807 114.84 149.075C113.074 148.344 111.565 147.105 110.503 145.516C109.441 143.926 108.874 142.058 108.874 140.146C108.874 137.583 109.893 135.125 111.705 133.313C113.517 131.5 115.975 130.482 118.539 130.482ZM117.234 122.395C114.895 122.547 112.609 123.165 110.511 124.211C108.414 125.257 106.546 126.712 105.017 128.489C98.407 136.39 99.167 146.556 106.293 153.682C108.967 156.096 112.303 157.653 115.87 158.152C119.438 158.65 123.073 158.067 126.306 156.479C129.538 154.89 132.221 152.369 134.006 149.24C135.79 146.111 136.596 142.519 136.319 138.928C136.201 136.571 135.608 134.263 134.575 132.142C133.541 130.021 132.089 128.132 130.306 126.587C128.523 125.042 126.445 123.874 124.199 123.154C121.952 122.433 119.583 122.175 117.234 122.395Z" fill="white"/>
<path fill-rule="evenodd" clip-rule="evenodd" d="M92.3413 143.502H51.1174C52.1763 145.587 53.4549 147.553 54.9315 149.366H98.6934C98.1915 147.072 97.1735 145.538 97.1735 143L92.3413 143.502Z" fill="white"/>
<path fill-rule="evenodd" clip-rule="evenodd" d="M137.881 149.123H147.345C150.141 149.123 154.213 149.883 154.715 147.087C155.733 142.785 150.141 143.531 148.865 143.531H139.458C138.942 146.069 138.426 147.087 137.924 149.123" fill="white"/>
</svg>
