<svg width="493" height="186" viewBox="0 0 493 186" fill="none" xmlns="http://www.w3.org/2000/svg">
<path fill-rule="evenodd" clip-rule="evenodd" d="M464.253 101.522C433.641 129.323 426.475 156.798 437.218 184.012H413.682C415.471 151.911 432.935 124.472 463.924 101.072C462.63 99.1047 462.106 96.7281 462.454 94.3982C463.228 88.4997 468.631 83.7852 474.463 83.7852C480.295 83.7852 484.4 88.5416 483.642 94.3982C482.883 100.255 477.481 105.016 471.612 105.016C470.199 105.047 468.798 104.749 467.518 104.146C466.239 103.544 465.116 102.653 464.238 101.543L464.253 101.522ZM248.207 184.012L260.55 118.39H273.804L293.156 162.209L301.399 118.39H314.056L301.718 184.012H288.041L268.914 141.214L260.864 184.012H248.207ZM372.713 184.012L358.069 118.39H343.654L305.039 184.012H319.485L327.853 169.098H354.815L357.896 184.012H372.713ZM352.519 158.055H334.119L347.812 133.697L352.519 158.055ZM381.49 184.012H392.902L429.645 118.39H416.642L390.988 166.961L383.069 118.39H368.294L381.49 184.012Z" fill="white"/>
<path fill-rule="evenodd" clip-rule="evenodd" d="M452.679 61.0207C465.231 52.2098 480.148 49.7739 492.852 53.2155C481.241 54.4623 468.657 59.1611 457.062 67.2911C445.466 75.4211 436.753 85.6622 431.611 96.16C432.731 83.0273 440.111 69.837 452.679 61.0207ZM67.6795 184.563H52.857L49.7711 169.649H22.8144L14.446 184.563H0L38.615 118.942H53.0191L67.6638 184.563H67.6795ZM405.931 20.135C378.733 39.2028 362.771 67.7469 360.349 96.16C371.474 73.441 390.324 51.293 415.413 33.6972C440.503 16.1014 467.716 5.9337 492.821 3.24116C465.362 -4.19213 433.123 1.04627 405.931 20.135ZM47.4855 158.607L42.7783 134.248L29.0802 158.607H47.4855ZM70.6085 184.563H84.2385L89.3903 157.166H92.1415C95.2796 157.166 97.5129 157.413 98.8623 157.905C100.289 158.461 101.532 159.407 102.45 160.634C103.496 161.965 105.283 165.179 107.811 170.278L114.966 184.563H131.279L125.443 171.761C123.152 166.658 121.234 163.108 119.689 161.111C117.931 158.922 115.808 157.056 113.413 155.595C119.49 154.772 124.334 152.74 127.901 149.545C131.462 146.356 133.842 142.054 134.653 137.339C135.385 133.456 135.056 130.007 133.664 126.993C133.028 125.553 132.11 124.255 130.965 123.175C129.819 122.096 128.47 121.256 126.996 120.707C123.952 119.534 118.83 118.944 111.629 118.937H59.2745L61.7484 130.042H105.128C110.657 130.042 113.957 130.121 115.029 130.257C117.173 130.623 118.727 131.477 119.679 132.839C120.631 134.201 120.913 135.982 120.495 138.188C120.188 140.007 119.39 141.708 118.188 143.107C117.025 144.417 115.522 145.379 113.847 145.888C112.104 146.422 107.972 146.686 101.451 146.679H77.7321L70.6085 184.563ZM142.619 118.942H156.217L149.544 154.479C148.497 160.116 147.948 163.788 147.974 165.448C147.963 166.676 148.22 167.891 148.729 169.008C149.238 170.125 149.986 171.117 150.919 171.912C152.812 173.547 155.658 174.362 159.455 174.359C163.318 174.359 166.378 173.589 168.634 172.049C170.73 170.704 172.343 168.723 173.237 166.396C174.06 164.151 174.956 160.433 175.925 155.244L182.761 118.942H196.36L189.879 153.41C188.394 161.289 186.98 166.856 185.638 170.11C184.38 173.229 182.464 176.038 180.02 178.345C177.42 180.699 174.383 182.516 171.082 183.694C167.518 185.024 163.066 185.686 157.724 185.679C151.283 185.679 146.536 184.956 143.482 183.51C140.427 182.065 138.161 180.186 136.682 177.874C135.231 175.711 134.384 173.199 134.229 170.598C134.041 166.847 134.641 161.296 136.029 153.945L142.619 118.942ZM206.151 163.222H192.636C192.137 170.556 193.812 176.143 197.662 179.985C201.511 183.826 207.701 185.747 216.229 185.747C222.087 185.747 227.131 184.947 231.36 183.348C235.422 181.851 239.027 179.324 241.821 176.014C244.46 173.015 246.264 169.373 247.051 165.454C247.829 161.315 247.593 157.83 246.345 154.998C245.066 152.153 242.888 149.808 240.147 148.324C237.285 146.7 232.68 145.129 226.334 143.609C220 142.09 216.093 140.624 214.645 139.22C214.102 138.726 213.698 138.097 213.474 137.397C213.25 136.698 213.214 135.951 213.368 135.233C213.537 134.384 213.887 133.582 214.393 132.88C214.899 132.179 215.551 131.595 216.303 131.168C218.834 129.593 222.082 128.804 226.047 128.8C229.882 128.8 232.616 129.539 234.248 131.016C235.785 132.399 236.585 134.636 236.633 137.711H250.357C251.274 131.669 249.935 126.845 246.34 123.237C242.745 119.63 236.709 117.828 228.233 117.831C223.055 117.831 218.491 118.591 214.54 120.11C210.803 121.478 207.472 123.768 204.854 126.768C202.477 129.421 200.852 132.662 200.146 136.155C199.166 141.348 200.411 145.747 203.881 149.351C206.321 151.911 211.029 154.076 218.002 155.846C223.41 157.214 226.894 158.177 228.358 158.717C230.545 159.518 231.993 160.467 232.726 161.561C233.097 162.142 233.347 162.791 233.462 163.471C233.577 164.15 233.555 164.846 233.395 165.516C232.94 167.931 231.418 170.032 228.855 171.844C226.292 173.657 222.819 174.563 218.437 174.563C214.289 174.563 211.203 173.542 209.148 171.52C207.293 169.697 206.281 166.938 206.114 163.243L206.151 163.222ZM431.182 42.2149C411.888 55.7404 400.565 75.9921 398.849 96.1704C406.741 80.0519 420.11 64.3367 437.909 51.8535C455.707 39.3704 475.043 32.1624 492.826 30.2504C473.338 24.9596 450.477 28.6946 431.182 42.2254V42.2149Z" fill="white"/>
</svg>
