<svg width="300" height="350" viewBox="0 0 300 350" fill="none" xmlns="http://www.w3.org/2000/svg">
<path fill-rule="evenodd" clip-rule="evenodd" d="M100.147 105.248C94.3646 93.9126 88.3349 81.0245 81.1919 70.2791C72.2245 56.7388 61.5255 46.6146 47.425 47.1115L88.6441 115.465L29.7067 53.6643C21.2032 60.4966 16.132 72.1114 15.6372 85.2791L85.3045 137.981C85.3045 137.981 45.9408 120.807 20.2755 110.496C38.0866 152.266 102.528 158.416 132.739 169.316C125.781 156.552 104.878 114.534 100.147 105.248Z" fill="#FF8C02"/>
<path fill-rule="evenodd" clip-rule="evenodd" d="M180.358 81.7699C179.121 69.0681 177.204 54.9066 177.389 41.9253C177.606 25.621 181.131 11.2422 193.252 4.06831L195.51 84.1923L211.682 0C222.474 1.18012 233.018 8.26084 240.563 19.1304L210.476 101.428C210.476 101.428 234.255 65.5898 250.242 42.9812C257.849 87.95 207.013 128.012 187.501 153.633C186.511 139.037 181.378 92.1736 180.358 81.7699Z" fill="#FF8C02"/>
<path fill-rule="evenodd" clip-rule="evenodd" d="M163.97 176.086C178.781 171.707 194.211 180.217 198.571 195.092C202.901 209.968 194.459 225.496 179.647 229.875C164.836 234.223 149.405 225.744 145.045 210.869C140.716 195.962 149.158 180.434 163.97 176.086ZM120.122 26.0556C138.583 20.5587 149.746 31.6456 155.868 52.9188C161.991 74.1921 167.247 107.577 171.515 147.328C172.69 158.509 170.742 164.223 160.816 167.204C150.89 170.154 146.221 166.428 141.242 156.366C123.74 120.527 110.444 89.5647 104.321 68.2914C98.1677 47.0493 101.693 31.5524 120.122 26.0556Z" fill="#FF8C02"/>
<path d="M38.1304 299.848C43.2617 302.797 45.456 307.951 45.456 313.833C45.456 318.987 43.2617 323.411 39.582 327.09C35.9192 330.769 30.7879 332.244 25.6566 332.244H0V270.401H24.205C29.3363 270.401 34.4676 271.876 38.1304 275.555C41.7932 278.505 44.0044 282.912 44.0044 288.083C43.9875 292.49 41.7932 296.915 38.1304 299.848ZM24.205 283.658H13.9423V294.711H24.205C25.6735 294.711 27.1419 293.982 27.8678 293.236C28.5936 292.507 29.3363 291.032 29.3363 289.558C29.3363 288.083 29.3363 285.879 27.8678 285.133C27.1251 283.658 25.6566 283.658 24.205 283.658ZM13.9254 319.004H25.6566C27.1251 319.004 28.5936 318.275 30.0621 317.529C30.7879 316.8 31.5306 315.325 31.5306 313.104C31.5306 310.901 30.8048 310.155 30.0621 308.68C29.3363 307.205 27.8678 307.205 25.6566 307.205H13.9254V319.004Z" fill="#FF8C02"/>
<path d="M82.1177 311.63V288.066H95.3174V332.244H82.1177V327.819C79.1807 331.498 75.5179 332.973 69.6608 332.973C65.2553 332.973 60.8667 331.498 57.9297 327.819C54.9927 324.869 53.5242 319.716 53.5242 314.562V288.066H66.7238V313.105C66.7238 315.308 67.4496 317.529 68.9181 318.987C70.3866 320.462 71.8551 321.191 74.7921 321.191C77.7291 321.191 79.1976 320.462 80.6661 318.987C81.3919 317.529 82.1177 314.579 82.1177 311.63Z" fill="#FF8C02"/>
<path d="M116.586 300.594C116.586 301.323 117.312 302.069 118.78 302.798C120.249 303.527 121.717 304.273 124.654 305.002C134.191 307.205 138.58 311.63 138.58 318.987C138.58 323.412 137.111 327.091 133.448 330.04C129.785 332.244 125.38 333.719 120.249 333.719C110.712 333.719 104.855 330.04 101.192 323.412L112.923 316.783C114.392 320.462 116.586 321.937 120.249 321.937C123.186 321.937 124.654 321.208 124.654 318.987C124.654 317.512 122.46 316.038 117.329 315.309C115.134 314.58 113.666 314.58 112.197 313.834C110.729 313.105 109.26 312.359 107.792 311.63C106.323 310.901 104.855 309.426 104.129 307.951C103.403 306.476 102.66 304.273 102.66 302.052C102.66 297.627 104.129 293.949 107.792 290.999C110.729 288.795 115.117 287.32 120.249 287.32C127.574 287.32 133.448 290.27 137.111 296.898L126.106 302.781C124.637 299.831 122.443 299.102 120.232 299.102C118.054 298.373 116.586 299.119 116.586 300.594Z" fill="#FF8C02"/>
<path d="M162.784 314.579L170.852 287.337H184.777L169.384 330.057C167.189 336.685 163.526 341.839 159.847 344.788C156.184 347.738 151.053 349.213 144.453 349.213V337.431C147.39 337.431 149.584 336.702 151.778 335.956C153.247 335.227 154.715 333.007 155.441 330.057L137.853 288.066H152.521L162.784 314.579Z" fill="#FF8C02"/>
<path d="M228.04 270.401V283.658H204.578V295.44H227.314V308.697H204.578V331.532H190.652V270.401H228.04Z" fill="#FF8C02"/>
<path d="M248.566 332.26H235.366V267.452H248.566V332.26Z" fill="#FF8C02"/>
<path d="M277.901 314.579L285.97 287.337H299.895L284.501 330.057C282.307 336.685 278.627 341.839 274.964 344.788C271.301 347.738 266.17 349.213 259.57 349.213V337.431C262.507 337.431 264.702 336.702 266.896 335.956C268.364 335.227 269.833 333.007 270.559 330.057L252.97 288.066H267.639L277.901 314.579Z" fill="#FF8C02"/>
</svg>
