<svg width="244" height="356" viewBox="0 0 244 356" fill="none" xmlns="http://www.w3.org/2000/svg">
<path d="M0.519775 130.503C0.519775 117.987 5.52515 105.984 14.4249 97.1672L105.668 6.80075C114.831 -2.26692 129.608 -2.26692 138.759 6.80075L230.002 97.1672C238.902 105.984 243.908 117.987 243.908 130.503V279.248C243.908 292.206 233.383 302.717 220.41 302.717H24.0176C11.0442 302.717 0.519775 292.206 0.519775 279.248V130.503Z" fill="#89001E"/>
<path d="M122.214 18.2074C120.816 18.2074 119.502 18.7563 118.499 19.7346L27.255 110.113C21.8435 115.47 18.7495 122.903 18.7495 130.503V279.249C18.7495 282.148 21.1148 284.499 24.0176 284.499H220.398C223.301 284.499 225.666 282.148 225.666 279.249V130.515C225.666 122.903 222.56 115.47 217.161 110.125L125.917 19.7465C124.926 18.7563 123.611 18.2074 122.214 18.2074ZM220.41 293.173H24.0296C16.3364 293.173 10.0767 286.921 10.0767 279.249V130.515C10.0767 120.612 14.1144 110.924 21.1506 103.957L112.394 13.5901C115.022 10.9771 118.51 9.54541 122.214 9.54541C125.917 9.54541 129.405 10.9771 132.033 13.5901L223.277 103.957C230.313 110.924 234.351 120.612 234.351 130.515V279.261C234.351 286.921 228.103 293.173 220.41 293.173Z" fill="white"/>
<path d="M122.214 114.585C112.693 114.585 104.964 122.293 104.964 131.814C104.964 141.323 112.693 149.043 122.214 149.043C131.735 149.043 139.464 141.323 139.464 131.814C139.464 122.293 131.735 114.585 122.214 114.585Z" fill="white"/>
<path d="M122.381 191.159C112.86 191.159 105.131 198.879 105.131 208.388C105.131 217.897 112.86 225.616 122.381 225.616C131.902 225.616 139.631 217.897 139.631 208.388C139.619 198.867 131.902 191.159 122.381 191.159Z" fill="white"/>
<path d="M113.912 170.577C113.912 161.068 106.183 153.349 96.6616 153.349C87.1287 153.349 79.4116 161.068 79.4116 170.577C79.4116 180.086 87.1287 187.806 96.6616 187.806C106.183 187.806 113.912 180.098 113.912 170.577Z" fill="white"/>
<path d="M148.101 187.806C157.622 187.806 165.351 180.086 165.351 170.577C165.351 161.068 157.622 153.349 148.101 153.349C138.58 153.349 130.851 161.068 130.851 170.577C130.851 180.098 138.58 187.806 148.101 187.806Z" fill="white"/>
<path d="M70.2847 149.042C79.8056 149.042 87.5347 141.322 87.5347 131.813C87.5347 122.304 79.8056 114.597 70.2847 114.597C60.7637 114.597 53.0347 122.304 53.0347 131.813C53.0466 141.322 60.7637 149.042 70.2847 149.042Z" fill="white"/>
<path d="M174.143 114.585C164.622 114.585 156.893 122.293 156.893 131.814C156.893 141.323 164.622 149.043 174.143 149.043C183.664 149.043 191.393 141.323 191.393 131.814C191.393 122.293 183.664 114.585 174.143 114.585Z" fill="white"/>
<path d="M127.697 86.9529L139.679 65.799C141.327 62.8878 140.802 59.2369 138.413 56.9103L122.214 41.1851L106.015 56.9103C103.614 59.2369 103.1 62.8997 104.749 65.799L116.731 86.9529L89.5894 73.5542C89.5894 73.5542 89.8044 74.4372 90.33 75.9524C91.9069 80.4982 96.2194 90.7948 105.645 100.352H105.657C110.089 96.5217 115.882 94.1951 122.214 94.1951C128.545 94.1951 134.339 96.5217 138.783 100.352C148.22 90.7948 152.533 80.4982 154.098 75.9524C154.623 74.4372 154.838 73.5542 154.838 73.5542L127.697 86.9529Z" fill="white"/>
<path d="M116.731 86.9529L104.749 65.799C103.1 62.8878 103.626 59.2369 106.015 56.9103L122.214 41.1851L138.413 56.9103C140.814 59.2369 141.327 62.8997 139.679 65.799L127.697 86.9529L154.838 73.5542C154.838 73.5542 154.623 74.4372 154.098 75.9524C152.521 80.4982 148.208 90.7948 138.771 100.352C134.339 96.5217 128.545 94.1951 122.214 94.1951C115.882 94.1951 110.089 96.5217 105.645 100.352C96.2074 90.7948 91.8949 80.4982 90.33 75.9524C89.8044 74.4372 89.5894 73.5542 89.5894 73.5542L116.731 86.9529Z" fill="white"/>
<path d="M148.817 258.225C150.311 256.709 151.362 255.385 151.971 254.24C152.58 253.094 152.891 251.973 152.891 250.875C152.891 248.871 152.198 247.308 150.836 246.222C149.474 245.124 147.563 244.563 145.09 244.563C143.478 244.563 142.032 244.886 140.766 245.53C139.488 246.162 138.508 247.045 137.803 248.155C137.11 249.276 136.764 250.505 136.764 251.865H141.53C141.53 250.744 141.829 249.849 142.45 249.169C143.071 248.477 143.92 248.131 144.995 248.131C145.998 248.131 146.763 248.405 147.3 248.978C147.838 249.539 148.113 250.314 148.113 251.293C148.113 252.02 147.85 252.784 147.336 253.583C146.834 254.383 146.046 255.325 144.983 256.411L137.242 264.071V267.101H153.656V263.546H143.358L148.817 258.225Z" fill="white"/>
<path d="M167.967 258.701C167.943 260.443 167.68 261.732 167.155 262.579C166.641 263.426 165.805 263.844 164.634 263.844C163.463 263.844 162.603 263.402 162.078 262.531C161.552 261.636 161.289 260.3 161.289 258.486V253.07C161.325 251.375 161.612 250.123 162.125 249.335C162.663 248.524 163.499 248.13 164.61 248.13C165.757 248.13 166.605 248.548 167.143 249.395C167.692 250.23 167.967 251.566 167.967 253.416V258.701ZM164.61 244.575C162.006 244.575 159.999 245.374 158.613 246.985C157.228 248.596 156.535 250.958 156.535 254.06V258.152C156.571 261.135 157.275 263.426 158.661 265.025C160.047 266.623 162.042 267.423 164.646 267.423C167.286 267.423 169.305 266.612 170.667 264.989C172.041 263.354 172.721 261.004 172.721 257.926V253.833C172.686 250.85 171.981 248.56 170.595 246.973C169.209 245.362 167.214 244.575 164.61 244.575Z" fill="white"/>
<path d="M177.058 248.143V251.735L182.744 250.1V267.114H187.487V244.838H186.973L177.058 248.143Z" fill="white"/>
<path d="M205.752 263.008C205.167 263.569 204.366 263.844 203.339 263.844C202.288 263.844 201.464 263.557 200.866 262.973C200.281 262.4 199.982 261.624 199.982 260.682C199.982 259.703 200.281 258.928 200.89 258.355C201.487 257.771 202.3 257.484 203.303 257.484C204.319 257.484 205.131 257.771 205.74 258.355C206.349 258.94 206.636 259.715 206.636 260.682C206.636 261.684 206.338 262.448 205.752 263.008ZM201.237 248.894C201.738 248.393 202.419 248.13 203.315 248.13C204.211 248.13 204.904 248.393 205.406 248.918C205.896 249.443 206.146 250.135 206.146 250.994C206.146 251.877 205.896 252.592 205.406 253.141C204.928 253.678 204.235 253.941 203.339 253.941C202.443 253.941 201.75 253.678 201.249 253.141C200.759 252.592 200.508 251.877 200.508 250.994C200.496 250.099 200.747 249.395 201.237 248.894ZM207.628 255.647C208.643 255.146 209.444 254.489 210.029 253.642C210.614 252.807 210.901 251.853 210.901 250.779C210.901 248.858 210.208 247.355 208.846 246.245C207.484 245.124 205.645 244.575 203.327 244.575C200.998 244.575 199.146 245.135 197.784 246.269C196.422 247.39 195.741 248.894 195.741 250.791C195.741 251.865 196.028 252.831 196.59 253.654C197.175 254.489 197.975 255.158 198.991 255.659C197.844 256.16 196.924 256.876 196.243 257.794C195.562 258.713 195.228 259.787 195.228 261.016C195.228 262.984 195.956 264.536 197.414 265.693C198.871 266.838 200.842 267.423 203.339 267.423C205.824 267.423 207.795 266.85 209.24 265.705C210.686 264.559 211.415 262.996 211.415 261.016C211.415 259.787 211.08 258.713 210.399 257.818C209.718 256.888 208.786 256.172 207.628 255.647Z" fill="white"/>
<path d="M42.51 248.214C43.7524 248.214 44.732 248.501 45.4248 249.062C46.1177 249.622 46.4642 250.41 46.4642 251.436H51.3978C51.3978 250.1 51.0275 248.906 50.2749 247.868C49.5462 246.807 48.5069 246.007 47.169 245.434C45.831 244.85 44.3019 244.563 42.5937 244.563C40.8973 244.563 39.3563 244.826 37.9825 245.351C36.6207 245.876 35.5813 246.616 34.8407 247.558C34.112 248.489 33.7536 249.563 33.7536 250.768C33.7536 253.082 35.1155 254.908 37.8391 256.28C38.8307 256.781 40.1925 257.294 41.9008 257.807C43.621 258.32 44.8037 258.809 45.4607 259.275C46.1177 259.74 46.4403 260.396 46.4403 261.255C46.4403 262.043 46.1177 262.675 45.4607 263.116C44.8037 263.558 43.8838 263.773 42.7131 263.773C39.5594 263.773 37.9705 262.556 37.9705 260.098H33.0249C33.0249 261.53 33.4191 262.794 34.2076 263.892C35.0079 264.978 36.1667 265.837 37.6719 266.469C39.189 267.089 40.8615 267.4 42.7012 267.4C45.3532 267.4 47.4676 266.863 49.0325 265.765C50.6094 264.667 51.3859 263.152 51.3859 261.231C51.3859 259.489 50.7528 258.058 49.4626 256.888C48.1724 255.731 46.1297 254.753 43.3224 253.977C41.7933 253.548 40.6345 253.082 39.858 252.605C39.0815 252.116 38.6873 251.507 38.6873 250.792C38.6873 250.016 39.0218 249.396 39.6908 248.93C40.3717 248.465 41.3035 248.214 42.51 248.214Z" fill="white"/>
<path d="M59.9986 244.873H55.0649V267.113H59.9986V244.873Z" fill="white"/>
<path d="M79.1489 259.536L69.5323 244.873H64.5986V267.101H69.5323V252.473L79.1369 267.101H84.0706V244.873H79.1489V259.536Z" fill="white"/>
<path d="M93.9018 249.968C94.7261 248.871 95.9565 248.322 97.6051 248.322C99.1222 248.322 100.245 248.644 100.974 249.3C101.726 249.944 102.156 250.982 102.276 252.414H107.21C106.947 249.932 105.967 248 104.283 246.628C102.587 245.255 100.365 244.563 97.6051 244.563C95.6101 244.563 93.854 245.005 92.3369 245.876C90.8436 246.747 89.6729 247.988 88.8725 249.622C88.0602 251.245 87.6541 253.13 87.6541 255.266V256.626C87.6541 259.979 88.5261 262.615 90.2822 264.536C92.0502 266.457 94.4633 267.4 97.5334 267.4C100.341 267.4 102.599 266.708 104.307 265.336C106.027 263.964 106.983 262.078 107.174 259.692H102.24C102.133 261.04 101.691 262.043 100.938 262.699C100.185 263.343 99.0505 263.665 97.5334 263.665C95.849 263.665 94.6066 263.104 93.8182 261.995C93.0417 260.885 92.6594 259.131 92.6594 256.721V255.051C92.6833 252.76 93.0895 251.066 93.9018 249.968Z" fill="white"/>
<path d="M115.357 257.472H124.83V253.881H115.357V248.584H126.443V244.873H110.423V267.113H126.467V263.426H115.357V257.472Z" fill="white"/>
<path d="M6.7049 345.323H11.5983L9.15159 329.003L6.7049 345.323ZM18.2911 355.556H13.1678L12.2907 349.701H6.05903L5.18189 355.556H0.519775L5.68956 323.286H13.1213L18.2911 355.556Z" fill="white"/>
<path d="M20.1369 350.993C22.4454 350.993 23.1829 350.67 23.276 347.673L24.108 323.285H38.4638V355.555H33.2912V327.897H28.8604L28.3062 347.397C28.1214 353.299 25.9977 355.603 20.9196 355.603H20.1355V350.993H20.1369Z" fill="white"/>
<path d="M49.9077 342.694L48.3396 345.645V355.556H43.2615V323.286H48.3396V337.347L54.9859 323.286H60.064L53.0017 337.669L60.064 355.556H54.8476L49.9077 342.694Z" fill="white"/>
<path d="M67.9554 348.136C67.9554 350.441 68.9721 351.316 70.5868 351.316C72.2015 351.316 73.2182 350.44 73.2182 348.136V330.709C73.2182 328.403 72.2015 327.529 70.5868 327.529C68.9707 327.529 67.9554 328.405 67.9554 330.709V348.136ZM62.8787 331.032C62.8787 325.868 65.6017 322.917 70.5882 322.917C75.5718 322.917 78.2963 325.868 78.2963 331.032V347.812C78.2963 352.975 75.5733 355.926 70.5882 355.926C65.6017 355.926 62.8787 352.975 62.8787 347.812V331.032Z" fill="white"/>
<path d="M93.2499 346.199L96.7119 323.286H103.774V355.556H98.9739V332.414L95.4653 355.556H90.665L86.8801 332.737V355.556H82.4492V323.286H89.5115L93.2499 346.199Z" fill="white"/>
<path d="M113.235 345.323H118.127L115.682 329.003L113.235 345.323ZM124.821 355.556H119.698L118.821 349.701H112.589L111.712 355.556H107.05L112.22 323.286H119.652L124.821 355.556Z" fill="white"/>
<path d="M133.176 327.897V337.809H135.161C137.054 337.809 138.207 336.978 138.207 334.396V331.216C138.207 328.91 137.422 327.896 135.622 327.896H133.176V327.897ZM138.715 355.556C138.438 354.727 138.254 354.22 138.254 351.592V346.521C138.254 343.524 137.237 342.418 134.93 342.418H133.176V355.558H128.099V323.286H135.762C141.023 323.286 143.285 325.73 143.285 330.709V333.244C143.285 336.564 142.223 338.73 139.961 339.79C142.5 340.851 143.33 343.293 143.33 346.661V351.638C143.33 353.206 143.377 354.358 143.885 355.556H138.715Z" fill="white"/>
<path d="M154.223 342.694L152.653 345.645V355.556H147.576V323.286H152.653V337.347L159.301 323.286H164.378L157.317 337.669L164.378 355.556H159.163L154.223 342.694Z" fill="white"/>
<path d="M172.686 336.886H179.657V341.496H172.686V350.947H181.456V355.556H167.61V323.286H181.456V327.896H172.686V336.886Z" fill="white"/>
<path d="M184.041 323.286H199.734V327.896H194.426V355.556H189.349V327.896H184.041V323.286Z" fill="white"/>
<path d="M204.995 350.67H200.103V355.556H204.995V350.67Z" fill="white"/>
<path d="M214.689 327.897V337.809H216.675C218.567 337.809 219.721 336.978 219.721 334.396V331.216C219.721 328.91 218.935 327.896 217.136 327.896H214.689V327.897ZM220.228 355.556C219.952 354.727 219.767 354.22 219.767 351.592V346.521C219.767 343.524 218.75 342.418 216.443 342.418H214.689V355.558H209.612V323.286H217.275C222.537 323.286 224.799 325.73 224.799 330.709V333.244C224.799 336.564 223.737 338.73 221.475 339.79C224.013 340.851 224.844 343.293 224.844 346.661V351.638C224.844 353.206 224.89 354.358 225.398 355.556H220.228Z" fill="white"/>
<path d="M233.937 323.286V348.18C233.937 350.486 234.952 351.316 236.568 351.316C238.184 351.316 239.2 350.486 239.2 348.18V323.286H244V347.858C244 353.023 241.415 355.972 236.43 355.972C231.445 355.972 228.86 353.021 228.86 347.858V323.286H233.937Z" fill="white"/>
</svg>
