<svg width="437" height="376" viewBox="0 0 437 376" fill="none" xmlns="http://www.w3.org/2000/svg">
<path d="M174.864 62.8728C175.255 61.7392 175.822 60.6745 176.546 59.7183L214.821 10.5078C214.091 11.405 213.554 12.443 213.244 13.5571C212.897 14.7872 212.755 16.0663 212.823 17.3426C212.914 18.8363 213.161 20.3164 213.559 21.7589C214.07 23.4649 214.739 25.1194 215.557 26.7009L232.592 59.1926C233.402 60.7587 234.315 62.2692 235.325 63.7141C238.609 68.3046 242.665 72.2895 247.313 75.4909C248.813 76.5596 250.395 77.5088 252.045 78.33C253.583 79.0846 255.163 79.7518 256.776 80.328C258.238 80.8731 259.754 81.2607 261.298 81.4845C262.69 81.6941 264.096 81.7995 265.504 81.8L293.895 81.064L296.103 80.8537L297.995 80.328L299.678 79.4867L301.045 78.33L257.618 122.283L256.251 123.44L254.568 124.386L252.675 125.017L250.467 125.332L222.497 127.646C221.131 127.768 219.755 127.733 218.396 127.541C216.904 127.326 215.429 127.01 213.98 126.594C212.432 126.108 210.921 125.511 209.458 124.807C207.896 124.069 206.385 123.226 204.937 122.283C203.467 121.325 202.062 120.271 200.731 119.129C199.469 117.972 198.207 116.71 197.051 115.448C195.91 114.189 194.856 112.854 193.896 111.452C192.988 110.075 192.18 108.634 191.478 107.141L176.546 75.8064C175.83 74.2526 175.266 72.6325 174.864 70.9694C174.533 69.5199 174.357 68.0396 174.338 66.5531C174.35 65.3086 174.527 64.0711 174.864 62.8728Z" fill="url(#paint0_linear_520_1607)"/>
<path d="M81.9106 64.9757C82.2845 63.789 82.8149 62.6574 83.4879 61.6109L118.713 6.40674C118.074 7.45702 117.579 8.58879 117.241 9.77151C116.946 11.0468 116.804 12.3531 116.821 13.6622C116.84 15.0793 117.016 16.4899 117.346 17.8682C117.761 19.4118 118.289 20.9229 118.924 22.3896L135.432 58.8769C136.253 60.6272 137.202 62.3143 138.272 63.9242C139.379 65.6236 140.609 67.2403 141.952 68.7612C143.353 70.3379 144.864 71.8136 146.473 73.1775C148.12 74.5657 149.84 75.8644 151.626 77.068C153.424 78.2209 155.285 79.274 157.199 80.2226C159.026 81.1459 160.925 81.9195 162.877 82.5358C164.691 83.1516 166.556 83.609 168.45 83.9028C170.183 84.2174 171.949 84.3233 173.707 84.2183L209.459 83.2718H211.456C212.967 83.2371 214.477 83.3076 215.978 83.4823C218.22 83.6993 220.438 84.1217 222.602 84.7441C225.491 85.5095 228.306 86.5299 231.015 87.7934C234.418 89.3453 237.689 91.174 240.794 93.2612C247.883 98.1136 254.074 104.162 259.09 111.137C260.628 113.292 262.032 115.54 263.296 117.867C264.242 119.549 264.768 120.706 264.873 120.916L284.431 158.35C285.382 160.127 286.435 161.847 287.586 163.502C289.923 166.853 292.679 169.892 295.787 172.545C297.328 173.863 298.943 175.091 300.624 176.225C302.212 177.273 303.862 178.221 305.566 179.064C307.134 179.804 308.75 180.436 310.403 180.957C311.912 181.399 313.463 181.681 315.03 181.798C316.435 181.886 317.846 181.815 319.236 181.588L347.311 176.646L348.678 176.33L349.94 175.91L351.097 175.279L352.148 174.543L301.991 214.395L300.94 215.131L299.783 215.762L298.521 216.288L297.154 216.708L269.184 222.807C267.802 223.103 266.392 223.244 264.978 223.228C263.493 223.121 262.017 222.91 260.562 222.597C258.984 222.182 257.438 221.655 255.935 221.019C254.294 220.305 252.711 219.461 251.203 218.496C249.644 217.493 248.168 216.368 246.787 215.131C243.922 212.685 241.409 209.854 239.321 206.719C238.309 205.166 237.396 203.55 236.588 201.882L219.658 166.236C219.553 166.026 219.132 164.974 218.291 163.292C217.154 161.082 215.891 158.94 214.506 156.877C212.528 153.936 210.274 151.19 207.776 148.676C204.695 145.506 201.275 142.685 197.577 140.264C194.679 138.35 191.617 136.696 188.428 135.321C185.834 134.275 183.162 133.432 180.437 132.798C178.323 132.356 176.179 132.075 174.023 131.957C172.55 131.887 171.074 131.922 169.606 132.062H167.609L133.014 135.006C131.332 135.129 129.642 135.094 127.967 134.901C126.186 134.713 124.426 134.361 122.709 133.849C120.919 133.329 119.163 132.697 117.452 131.957C115.679 131.114 113.958 130.166 112.299 129.118C110.619 128.02 109.004 126.827 107.462 125.543C105.992 124.283 104.621 122.912 103.361 121.442C102.123 120.025 100.998 118.513 99.9965 116.92C99.052 115.364 98.2091 113.748 97.473 112.083L83.1724 77.068C82.5739 75.644 82.116 74.1649 81.8054 72.6518C81.4917 71.2732 81.3856 69.8556 81.4901 68.4457C81.5136 67.2779 81.6544 66.1153 81.9106 64.9757Z" fill="url(#paint1_linear_520_1607)"/>
<path d="M122.183 166.236C122.34 164.362 122.765 162.521 123.445 160.768C124.09 159.138 124.976 157.614 126.073 156.247L167.713 105.564C166.649 106.936 165.798 108.46 165.189 110.085C164.578 111.848 164.223 113.69 164.138 115.553C164.051 117.67 164.228 119.789 164.664 121.862C165.181 124.219 165.956 126.511 166.977 128.697L186.325 171.493C187.267 173.533 188.356 175.501 189.584 177.382C190.832 179.291 192.202 181.117 193.685 182.85C195.227 184.567 196.878 186.182 198.627 187.687C200.396 189.171 202.258 190.54 204.201 191.788C206.106 192.942 208.072 193.995 210.089 194.942C211.995 195.764 213.964 196.432 215.977 196.94C217.844 197.374 219.743 197.656 221.655 197.781C223.449 197.886 225.249 197.78 227.018 197.466L263.085 191.157L265.293 190.631L267.291 189.895L269.079 188.948L270.656 187.792L221.34 231.114L219.763 232.376L217.975 233.427L215.977 234.268L213.769 234.899L178.544 242.681C176.819 243.069 175.053 243.245 173.286 243.206C171.445 243.204 169.611 242.992 167.818 242.575C165.916 242.175 164.051 241.612 162.245 240.893C160.352 240.131 158.523 239.216 156.777 238.159C154.975 237.017 153.254 235.752 151.625 234.374C150.05 233.009 148.574 231.533 147.209 229.957C145.832 228.39 144.6 226.701 143.529 224.91C142.478 223.107 141.53 221.247 140.689 219.337L124.181 178.854C123.343 176.746 122.709 174.563 122.288 172.335C121.991 170.315 121.956 168.265 122.183 166.236Z" fill="url(#paint2_linear_520_1607)"/>
<path d="M225.126 6.82696C222.727 6.5911 220.307 6.95233 218.081 7.87847C216.253 8.72623 214.769 10.173 213.875 11.9792C212.934 14.0147 212.606 16.2798 212.929 18.4987C213.295 21.4183 214.223 24.2394 215.663 26.8056L232.697 59.2972C233.507 60.8634 234.42 62.3737 235.431 63.8185C238.714 68.409 242.77 72.3941 247.418 75.5956C248.919 76.6643 250.501 77.6135 252.15 78.4346C253.688 79.1893 255.268 79.8562 256.882 80.4324C258.343 80.9775 259.859 81.3653 261.403 81.5892C262.795 81.7987 264.201 81.9042 265.609 81.9047L294 81.1684C296.213 81.1881 298.379 80.5276 300.204 79.2759C301.759 78.0996 302.871 76.432 303.359 74.5441C303.884 72.2962 303.884 69.9572 303.359 67.7093C302.696 64.8254 301.596 62.0596 300.099 59.5075L282.959 29.7498C282.118 28.3828 281.277 27.121 280.33 25.8592C279.395 24.505 278.339 23.2381 277.176 22.0738C276.064 20.8381 274.869 19.6787 273.601 18.6038C272.342 17.4632 271.007 16.4092 269.605 15.4493C268.238 14.5029 266.871 13.6617 265.399 12.8205L261.193 10.8226C259.859 10.2729 258.489 9.81619 257.092 9.45573C255.814 9.1433 254.513 8.93224 253.201 8.82473L225.126 6.82696Z" fill="url(#paint3_linear_520_1607)"/>
<path d="M134.066 0.412808C132.489 0.290102 130.904 0.32543 129.334 0.518062C127.893 0.620274 126.475 0.939212 125.128 1.46432C123.891 1.88963 122.723 2.4918 121.658 3.25196C119.582 4.74823 118.065 6.89445 117.347 9.35063C116.925 10.6403 116.712 11.9894 116.716 13.3464C116.735 14.8329 116.912 16.3132 117.242 17.7627C117.645 19.3918 118.208 20.9768 118.924 22.4945L135.433 58.9819C136.253 60.7322 137.202 62.4193 138.272 64.0292C139.38 65.7286 140.61 67.345 141.952 68.866C143.354 70.4426 144.864 71.9183 146.474 73.2822C148.12 74.6704 149.84 75.9694 151.626 77.173C153.425 78.3259 155.285 79.379 157.199 80.3276C159.026 81.2509 160.925 82.0245 162.877 82.6408C164.692 83.2566 166.557 83.714 168.45 84.0078C170.184 84.3224 171.949 84.4281 173.708 84.3231L209.459 83.3768H211.457C212.967 83.3421 214.478 83.4123 215.978 83.5871C218.221 83.8041 220.438 84.2264 222.603 84.8488C225.492 85.6143 228.307 86.6349 231.015 87.8984C234.419 89.4503 237.69 91.279 240.794 93.3662C247.883 98.2186 254.074 104.267 259.09 111.242C260.628 113.397 262.033 115.645 263.296 117.971C264.243 119.654 264.768 120.811 264.874 121.021L284.432 158.454C285.382 160.232 286.436 161.952 287.586 163.607C289.924 166.958 292.68 169.997 295.788 172.65C297.329 173.967 298.944 175.196 300.625 176.33C302.212 177.377 303.863 178.326 305.567 179.169C307.135 179.909 308.751 180.541 310.404 181.062C311.912 181.503 313.463 181.785 315.03 181.903C316.436 181.991 317.847 181.92 319.236 181.693L347.312 176.751C348.482 176.524 349.615 176.135 350.677 175.594C351.661 175.084 352.55 174.408 353.305 173.596C354.057 172.758 354.662 171.798 355.093 170.757C355.616 169.63 355.936 168.42 356.039 167.182C356.232 165.824 356.267 164.448 356.144 163.081C356.053 161.588 355.807 160.107 355.408 158.665C354.994 157.087 354.467 155.541 353.831 154.038C353.146 152.421 352.373 150.841 351.518 149.306L332.17 115.553C331.348 114.005 330.398 112.528 329.331 111.137C327.222 108.239 324.788 105.593 322.075 103.25C320.709 102.094 319.342 101.042 317.869 99.9907C316.495 99.0155 315.055 98.1371 313.558 97.3619C312.171 96.6245 310.729 95.9918 309.247 95.4692C307.907 95.0204 306.537 94.669 305.146 94.4177C303.863 94.1905 302.556 94.12 301.256 94.2074L272.865 95.4692H271.077C269.745 95.5393 268.409 95.504 267.082 95.3639C265.021 95.1408 262.982 94.7542 260.983 94.2074C258.243 93.447 255.57 92.4622 252.991 91.2631C249.689 89.7092 246.523 87.8801 243.528 85.7954C239.637 83.1341 236.01 80.1058 232.697 76.7523C230.061 74.1355 227.668 71.2848 225.547 68.2352C224.079 66.1849 222.745 64.0423 221.551 61.8209C220.71 60.2436 220.289 59.1922 220.079 58.9819L203.045 26.1748C202.27 24.6785 201.391 23.2379 200.416 21.8636C199.378 20.4298 198.255 19.0603 197.051 17.7627C195.789 16.3957 194.422 15.134 193.055 13.8722C191.62 12.625 190.11 11.4662 188.534 10.4021C186.984 9.32159 185.369 8.33837 183.697 7.45799C182.135 6.61586 180.519 5.87821 178.86 5.24985C177.286 4.61418 175.67 4.08719 174.023 3.67259C172.474 3.27384 170.889 3.02724 169.292 2.93645L134.066 0.412808Z" fill="url(#paint4_linear_520_1607)"/>
<path d="M180.857 99.6759C177.649 99.7669 174.51 100.633 171.709 102.199C169.199 103.637 167.183 105.799 165.926 108.403C164.55 111.248 163.935 114.399 164.138 117.552C164.334 121.419 165.299 125.208 166.977 128.698L186.325 171.494C187.267 173.533 188.356 175.501 189.585 177.382C190.832 179.291 192.202 181.118 193.686 182.85C195.227 184.567 196.878 186.183 198.628 187.687C200.396 189.171 202.258 190.541 204.201 191.788C206.107 192.943 208.072 193.995 210.089 194.943C211.995 195.765 213.964 196.433 215.978 196.94C217.844 197.375 219.743 197.656 221.656 197.782C223.449 197.886 225.249 197.781 227.018 197.466L263.085 191.157C265.974 190.737 268.67 189.46 270.825 187.492C272.981 185.524 274.497 182.955 275.177 180.116C275.914 177.014 276.021 173.797 275.493 170.653C274.856 166.902 273.613 163.279 271.813 159.927L252.255 121.863C251.375 120.157 250.391 118.506 249.31 116.921C248.175 115.308 246.946 113.763 245.63 112.294C242.943 109.343 239.906 106.73 236.587 104.513C234.98 103.409 233.292 102.425 231.54 101.569C229.904 100.76 228.218 100.058 226.493 99.4657C224.836 98.9465 223.151 98.5252 221.445 98.2039C219.847 97.942 218.227 97.8363 216.609 97.8884L180.857 99.6759Z" fill="url(#paint5_linear_520_1607)"/>
<path d="M171.709 102.2C169.884 103.146 168.272 104.455 166.97 106.046C165.668 107.637 164.705 109.477 164.138 111.453C162.964 115.461 162.892 119.71 163.928 123.756C164.472 125.737 165.175 127.671 166.031 129.539L168.449 135.007L173.391 145.943L183.276 167.814C184.117 169.602 184.853 171.494 185.799 173.282C186.69 175.138 187.709 176.93 188.849 178.645C191.136 182.035 193.819 185.141 196.84 187.898C202.939 193.365 210.299 197.572 218.501 198.833C220.553 199.151 222.632 199.257 224.705 199.149C226.72 198.953 228.721 198.636 230.699 198.202L242.475 196.099L254.252 193.996L260.141 192.945C262.17 192.64 264.174 192.183 266.134 191.578C268.121 190.774 269.914 189.555 271.392 188.003C272.849 186.509 273.962 184.715 274.652 182.745C275.93 178.875 276.112 174.726 275.177 170.758C275.672 174.695 275.09 178.692 273.495 182.325C272.65 184.047 271.47 185.584 270.025 186.846C268.61 188.045 266.964 188.94 265.188 189.475C263.319 189.995 261.424 190.417 259.51 190.737L253.622 191.788L242.265 193.786L230.488 195.889C228.491 196.205 226.493 196.625 224.705 196.835C222.81 196.976 220.906 196.905 219.027 196.625C211.456 195.469 204.306 191.368 198.522 186.215C195.608 183.6 193.03 180.633 190.847 177.383C189.742 175.775 188.758 174.088 187.902 172.336C187.061 170.548 186.22 168.76 185.379 166.867L175.494 144.996L170.552 134.06L168.134 128.593C167.313 126.83 166.645 125.001 166.136 123.125C164.863 119.479 164.573 115.562 165.295 111.769C166.131 107.876 168.426 104.452 171.709 102.2Z" fill="url(#paint6_linear_520_1607)"/>
<path d="M218.081 7.87842C216.674 8.41993 215.413 9.28423 214.401 10.4019C213.395 11.5899 212.676 12.9929 212.298 14.5028C211.681 17.5816 211.862 20.767 212.824 23.7562C213.367 25.1618 214 26.5315 214.717 27.8571L216.714 31.7476L220.815 39.5288L229.017 55.0912C230.384 57.7199 231.646 60.2434 233.328 62.8722C234.943 65.4031 236.81 67.7636 238.901 69.9173C243.066 74.3136 248.025 77.8815 253.517 80.4324L257.723 82.0096L259.931 82.6406L261.088 82.8509L262.139 83.0611C263.674 83.2537 265.224 83.2891 266.766 83.1664H271.182L288.743 82.6406L293.159 82.2199C294.703 82.118 296.225 81.7995 297.68 81.2736C299.14 80.7227 300.44 79.8196 301.466 78.6448C302.418 77.4624 303.035 76.0463 303.253 74.5441C302.807 75.8928 302.021 77.104 300.972 78.0616C299.922 79.0191 298.644 79.6908 297.26 80.0118C295.876 80.2913 294.459 80.3621 293.054 80.2221L288.638 80.0118L271.077 80.5376H266.661C265.293 80.6077 263.922 80.5724 262.56 80.4324L261.509 80.2221L260.562 80.0118L258.564 79.4861L254.569 78.0138C249.419 75.5753 244.753 72.2269 240.794 68.1298C238.781 66.1138 236.984 63.8936 235.431 61.5052C233.959 59.1919 232.697 56.458 231.225 53.9344L223.023 38.3722L218.923 30.591C217.556 28.0673 216.294 25.4386 215.137 22.8098C213.91 20.331 213.331 17.5816 213.455 14.8183C213.593 13.3694 214.088 11.9772 214.895 10.7662C215.702 9.5552 216.797 8.56311 218.081 7.87842Z" fill="url(#paint7_linear_520_1607)"/>
<path d="M125.128 1.46484C123.315 1.98632 121.649 2.92311 120.262 4.20079C118.875 5.47848 117.805 7.06188 117.136 8.8254C115.875 12.4337 115.875 16.3632 117.136 19.9715C117.692 21.7638 118.359 23.5198 119.134 25.229L121.237 30.2762L125.443 40.4759L134.591 60.5597C136.312 63.9459 138.468 67.0921 141.005 69.918C143.529 72.7061 146.349 75.2097 149.418 77.3838C155.554 81.9208 162.765 84.7834 170.343 85.6906C172.234 85.7958 174.129 85.7958 176.021 85.6906H181.489L192.529 85.3751L203.57 85.0599H214.506C221.656 85.6986 228.581 87.8873 234.8 91.4739C247.552 98.4822 257.806 109.287 264.137 122.388C270.972 135.427 277.702 148.36 284.642 161.399C288.526 167.822 293.809 173.285 300.099 177.382L302.517 178.854L305.041 180.221L307.669 181.378L310.404 182.219C312.26 182.704 314.164 182.987 316.082 183.06C317.103 183.095 318.125 183.025 319.131 182.85L321.865 182.324L343.421 177.908C345.208 177.487 346.996 177.277 348.889 176.751C350.726 176.154 352.363 175.063 353.62 173.597C356.039 170.653 356.565 166.657 356.144 162.976C356.249 166.552 355.513 170.442 352.99 173.071C351.739 174.307 350.176 175.179 348.468 175.595C346.786 176.015 344.893 176.12 343.105 176.436L321.339 179.59C314.504 181.483 307.249 178.854 301.466 174.964C295.521 170.987 290.53 165.744 286.85 159.612C280.015 146.783 273.18 133.639 266.345 120.706C264.756 117.334 262.893 114.098 260.772 111.032C258.631 107.961 256.277 105.045 253.727 102.304C248.561 96.8842 242.605 92.2756 236.062 88.6349C229.535 84.8339 222.243 82.5351 214.716 81.9053H203.465L192.424 82.2206L181.384 82.5361H176.021C174.235 82.6412 172.444 82.6412 170.658 82.5361C163.613 81.9052 156.883 78.8559 151.1 74.755C145.289 70.7729 140.498 65.4774 137.115 59.2979L128.072 39.214L123.235 29.3298L120.817 24.3878C119.974 22.7901 119.236 21.1393 118.608 19.4457C118.013 17.7823 117.624 16.0517 117.452 14.2933C117.254 12.5233 117.433 10.7315 117.978 9.03578C118.518 7.31485 119.443 5.73921 120.682 4.42773C121.92 3.11625 123.441 2.1031 125.128 1.46484Z" fill="url(#paint8_linear_520_1607)"/>
<path d="M121.237 40.0551L123.025 41.5272L121.553 39.8447L121.237 40.0551Z" fill="#49C8FF"/>
<path d="M31.1639 352.553C22.423 352.553 15.1494 349.833 9.34301 344.393C3.53665 338.952 0.633545 331.946 0.633545 323.373C0.633545 314.744 3.52355 307.724 9.30352 302.314C15.0835 296.903 22.3703 294.196 31.1639 294.193C42.493 294.193 50.6964 299.239 55.7741 309.332L43.2563 315.267C42.2552 312.904 40.597 310.879 38.4787 309.431C36.3542 307.884 33.7919 307.054 31.1639 307.062C26.6006 307.062 22.8368 308.626 19.8726 311.755C16.9084 314.884 15.4247 318.762 15.4214 323.388C15.4214 328.004 16.9051 331.88 19.8726 335.015C22.8401 338.151 26.6039 339.716 31.1639 339.709C33.7919 339.717 36.3542 338.887 38.4787 337.34C40.5989 335.894 42.2576 333.868 43.2563 331.504L55.7741 337.439C53.6209 341.739 50.4409 345.442 46.5156 348.221C42.4798 351.109 37.3626 352.553 31.1639 352.553Z" fill="white"/>
<path d="M109.807 344.353C104.109 349.823 96.9199 352.558 88.2384 352.558C79.5569 352.558 72.3492 349.823 66.6154 344.353C60.8915 338.886 58.0311 331.896 58.0344 323.383C58.0377 314.869 60.8981 307.878 66.6154 302.408C72.336 296.938 79.5387 294.203 88.2235 294.203C96.9083 294.203 104.098 296.938 109.792 302.408C115.486 307.878 118.334 314.869 118.334 323.383C118.334 331.896 115.491 338.886 109.807 344.353ZM88.2384 339.704C92.8083 339.704 96.5027 338.153 99.3218 335.05C102.141 331.947 103.551 328.058 103.551 323.383C103.551 318.701 102.141 314.81 99.3218 311.711C96.5027 308.611 92.8083 307.06 88.2384 307.057C83.6223 307.057 79.9014 308.608 77.0757 311.711C74.25 314.813 72.8406 318.704 72.8471 323.383C72.8471 328.061 74.2566 331.951 77.0757 335.05C79.8948 338.149 83.6157 339.697 88.2384 339.694V339.704Z" fill="white"/>
<path d="M120.346 352.553V339.694C121.653 339.735 122.948 339.441 124.11 338.841C125.271 338.242 126.26 337.355 126.984 336.267C128.593 333.988 129.791 329.802 130.579 323.709L133.962 295.123H176.001V351.564H161.456V307.838H147.078L145.05 324.837C144.371 330.366 143.3 335.004 141.836 338.749C140.372 342.495 138.51 345.342 136.252 347.291C134.176 349.135 131.744 350.532 129.105 351.396C126.261 352.222 123.308 352.612 120.346 352.553Z" fill="white"/>
<path d="M233.723 344.353C228.026 349.82 220.836 352.553 212.155 352.553C203.473 352.553 196.271 349.818 190.547 344.348C184.826 338.881 181.964 331.891 181.961 323.378C181.958 314.865 184.82 307.873 190.547 302.403C196.271 296.933 203.473 294.198 212.155 294.198C220.836 294.198 228.026 296.933 233.723 302.403C239.414 307.873 242.262 314.865 242.265 323.378C242.268 331.891 239.421 338.883 233.723 344.353ZM212.155 339.704C216.725 339.704 220.418 338.153 223.233 335.05C226.049 331.947 227.459 328.058 227.462 323.383C227.462 318.701 226.053 314.81 223.233 311.711C220.414 308.611 216.722 307.06 212.155 307.057C207.539 307.057 203.818 308.608 200.992 311.711C198.167 314.813 196.757 318.704 196.764 323.383C196.764 328.062 198.173 331.951 200.992 335.05C203.811 338.149 207.532 339.697 212.155 339.694V339.704Z" fill="white"/>
<path d="M312.248 351.563H297.702V314.861L283.409 351.563H276.979L262.77 314.861V351.563H248.225V295.132H268.438L280.194 325.746L292.034 295.132H312.248V351.563Z" fill="white"/>
<path d="M369.975 344.353C364.284 349.823 357.096 352.558 348.411 352.558C339.726 352.558 332.524 349.823 326.803 344.353C321.082 338.886 318.22 331.896 318.217 323.383C318.214 314.869 321.076 307.878 326.803 302.408C332.527 296.938 339.73 294.203 348.411 294.203C357.093 294.203 364.281 296.938 369.975 302.408C375.672 307.878 378.519 314.869 378.516 323.383C378.513 331.896 375.666 338.886 369.975 344.353ZM348.411 339.704C352.974 339.704 356.667 338.153 359.49 335.05C362.312 331.947 363.722 328.058 363.718 323.383C363.718 318.701 362.309 314.81 359.49 311.711C356.67 308.611 352.978 307.06 348.411 307.057C343.795 307.057 340.074 308.608 337.248 311.711C334.423 314.813 333.013 318.704 333.02 323.383C333.02 328.061 334.429 331.951 337.248 335.05C340.068 338.149 343.788 339.697 348.411 339.694V339.704Z" fill="white"/>
<path d="M437 351.563H422.454V328.897H399.026V351.563H384.481V295.132H399.026V316.191H422.454V295.132H437V351.563Z" fill="white"/>
<path d="M9.46584 375.339C8.05048 375.385 6.67432 374.869 5.63781 373.905C4.66049 372.925 4.11157 371.598 4.11157 370.215C4.11157 368.832 4.66049 367.505 5.63781 366.525C6.67855 365.565 8.05557 365.054 9.47079 365.101C10.374 365.059 11.2689 365.29 12.0391 365.763C12.8092 366.237 13.4188 366.932 13.7885 367.757L11.5926 368.796C11.4181 368.381 11.128 368.026 10.7567 367.772C10.3829 367.501 9.9326 367.355 9.47079 367.356C9.10178 367.346 8.7347 367.414 8.39373 367.555C8.05277 367.697 7.74565 367.909 7.49248 368.177C6.98887 368.738 6.71028 369.464 6.71028 370.218C6.71028 370.971 6.98887 371.697 7.49248 372.258C7.74482 372.528 8.05169 372.741 8.39277 372.883C8.73385 373.026 9.10133 373.094 9.47079 373.084C9.9326 373.085 10.3829 372.939 10.7567 372.668C11.128 372.414 11.4181 372.059 11.5926 371.644L13.7885 372.683C13.4113 373.438 12.8542 374.088 12.1662 374.577C11.3702 375.112 10.4241 375.379 9.46584 375.339Z" fill="white"/>
<path d="M17.3298 375.161H14.8569V365.269H17.4089V371.1L21.415 365.269H24.0808V375.161H21.5139V369.048L17.3298 375.161Z" fill="white"/>
<path d="M30.6834 375.339C29.268 375.385 27.8918 374.869 26.8553 373.905C25.878 372.925 25.3291 371.598 25.3291 370.215C25.3291 368.832 25.878 367.505 26.8553 366.525C27.8961 365.565 29.2731 365.054 30.6883 365.101C31.5915 365.059 32.4865 365.29 33.2566 365.763C34.0267 366.237 34.6364 366.932 35.006 367.757L32.81 368.796C32.6355 368.381 32.3454 368.026 31.9742 367.772C31.6003 367.501 31.1501 367.355 30.6883 367.356C30.3193 367.346 29.9522 367.414 29.6113 367.555C29.2703 367.697 28.9632 367.909 28.71 368.177C28.2064 368.738 27.9277 369.464 27.9277 370.218C27.9277 370.971 28.2064 371.697 28.71 372.258C28.9623 372.528 29.2692 372.741 29.6103 372.883C29.9514 373.026 30.3189 373.094 30.6883 373.084C31.1501 373.085 31.6003 372.939 31.9742 372.668C32.3454 372.414 32.6355 372.059 32.81 371.644L35.006 372.683C34.6288 373.438 34.0717 374.088 33.3838 374.577C32.5878 375.112 31.6417 375.379 30.6834 375.339Z" fill="white"/>
<path d="M40.8469 375.161H38.2949V367.49H35.5203V365.264H43.6067V367.49H40.8469V375.161Z" fill="white"/>
<path d="M52.0639 375.161H44.8083V365.269H52.0639V367.495H47.3605V369.038H51.9601V371.263H47.3605V372.94H52.0639V375.161Z" fill="white"/>
<path d="M64.7648 375.161H62.2128V368.731L59.7053 375.161H58.5776L56.1047 368.731V375.161H53.5527V365.269H57.0988L59.1612 370.64L61.2384 365.269H64.7846L64.7648 375.161Z" fill="white"/>
<path d="M66.5305 365.264H69.0874V368.588H71.4912C71.9541 368.562 72.4174 368.632 72.8516 368.795C73.2858 368.957 73.6815 369.209 74.0134 369.532C74.6001 370.171 74.9257 371.007 74.9257 371.874C74.9257 372.742 74.6001 373.577 74.0134 374.216C73.6815 374.54 73.2858 374.791 72.8516 374.954C72.4174 375.116 71.9541 375.187 71.4912 375.161H66.5454L66.5305 365.264ZM71.1449 370.813H69.0874V372.935H71.1498C71.4597 372.947 71.7635 372.847 72.0054 372.653C72.1158 372.555 72.203 372.434 72.2603 372.298C72.3177 372.161 72.3438 372.014 72.3369 371.867C72.3441 371.721 72.318 371.576 72.2606 371.443C72.2031 371.309 72.1158 371.19 72.0054 371.095C71.7622 370.9 71.4564 370.8 71.1449 370.813ZM78.2074 375.161H75.6555V365.269H78.2074V375.161Z" fill="white"/>
<path d="M88.6082 375.339C87.1928 375.385 85.8167 374.869 84.7801 373.905C83.8028 372.925 83.2539 371.598 83.2539 370.215C83.2539 368.832 83.8028 367.505 84.7801 366.525C85.8209 365.565 87.1979 365.054 88.6131 365.101C89.5163 365.059 90.4113 365.29 91.1814 365.763C91.9516 366.237 92.5612 366.932 92.9308 367.757L90.7349 368.796C90.5605 368.381 90.2703 368.026 89.8991 367.772C89.5252 367.501 89.0749 367.355 88.6131 367.356C88.2441 367.346 87.877 367.414 87.5361 367.555C87.1951 367.697 86.888 367.909 86.6348 368.177C86.1312 368.738 85.8526 369.464 85.8526 370.218C85.8526 370.971 86.1312 371.697 86.6348 372.258C86.8872 372.528 87.194 372.741 87.5351 372.883C87.8762 373.026 88.2437 373.094 88.6131 373.084C89.0749 373.085 89.5252 372.939 89.8991 372.668C90.2703 372.414 90.5605 372.059 90.7349 371.644L92.9308 372.683C92.5536 373.438 91.9965 374.088 91.3086 374.577C90.5126 375.112 89.5665 375.379 88.6082 375.339Z" fill="white"/>
<path d="M103.213 375.161H100.661V367.49H96.5512V375.161H93.9993V365.269H103.213V375.161Z" fill="white"/>
<path d="M106.517 375.339C105.619 375.386 104.732 375.119 104.01 374.582L104.999 372.604C105.36 372.902 105.807 373.075 106.275 373.099C106.527 373.113 106.778 373.053 106.997 372.925C107.202 372.775 107.371 372.581 107.491 372.357L103.916 365.279H106.794L108.931 369.909L111.082 365.279H113.96L109.94 373.232C109.642 373.883 109.158 374.431 108.549 374.806C107.939 375.181 107.232 375.367 106.517 375.339Z" fill="white"/>
<path d="M119.455 375.161H116.903V367.49H114.129V365.264H122.215V367.49H119.455V375.161Z" fill="white"/>
<path d="M132.631 375.161H130.079V371.204H125.964V375.161H123.412V365.269H125.964V368.964H130.074V365.269H132.626L132.631 375.161Z" fill="white"/>
<path d="M136.845 375.161H134.372V365.269H136.924V371.1L140.93 365.269H143.571V375.161H141.004V369.048L136.845 375.161Z" fill="white"/>
<path d="M154.308 375.161H151.187L148.591 371.436L147.923 372.267V375.161H145.371V365.269H147.923V369.334L150.965 365.269H154.11L150.267 369.898L154.308 375.161Z" fill="white"/>
<path d="M163.626 373.9C162.582 374.827 161.234 375.339 159.837 375.339C158.441 375.339 157.093 374.827 156.049 373.9C155.085 372.918 154.545 371.597 154.545 370.22C154.545 368.844 155.085 367.523 156.049 366.541C157.093 365.614 158.441 365.102 159.837 365.102C161.234 365.102 162.582 365.614 163.626 366.541C164.587 367.525 165.124 368.845 165.124 370.22C165.124 371.596 164.587 372.916 163.626 373.9ZM159.842 373.084C160.206 373.098 160.569 373.032 160.904 372.891C161.24 372.75 161.541 372.537 161.786 372.268C162.266 371.693 162.528 370.969 162.528 370.22C162.528 369.472 162.266 368.747 161.786 368.173C161.531 367.914 161.227 367.709 160.892 367.569C160.558 367.429 160.198 367.357 159.835 367.357C159.472 367.357 159.113 367.429 158.778 367.569C158.443 367.709 158.139 367.914 157.884 368.173C157.404 368.747 157.142 369.472 157.142 370.22C157.142 370.969 157.404 371.693 157.884 372.268C158.132 372.538 158.435 372.751 158.773 372.892C159.111 373.033 159.476 373.098 159.842 373.084Z" fill="white"/>
<path d="M172.187 375.161H166.401V365.27H172.009C172.397 365.245 172.786 365.298 173.153 365.426C173.52 365.555 173.858 365.755 174.146 366.016C174.387 366.245 174.578 366.52 174.708 366.826C174.839 367.131 174.905 367.46 174.902 367.792C174.913 368.329 174.738 368.853 174.408 369.276C174.109 369.667 173.682 369.941 173.201 370.047C173.467 370.087 173.723 370.179 173.953 370.318C174.183 370.457 174.383 370.641 174.541 370.858C174.903 371.315 175.096 371.883 175.085 372.466C175.095 372.819 175.032 373.171 174.902 373.5C174.772 373.829 174.577 374.128 174.329 374.38C174.044 374.649 173.707 374.857 173.339 374.992C172.97 375.126 172.579 375.184 172.187 375.161ZM171.43 369.063C171.545 369.068 171.66 369.05 171.768 369.01C171.876 368.971 171.975 368.909 172.059 368.831C172.14 368.755 172.205 368.662 172.248 368.558C172.29 368.455 172.31 368.344 172.306 368.232C172.308 368.122 172.288 368.013 172.245 367.911C172.203 367.81 172.139 367.719 172.059 367.644C171.888 367.488 171.662 367.406 171.43 367.416H168.958V369.063H171.43ZM171.52 373.02C171.781 373.037 172.039 372.95 172.237 372.777C172.405 372.605 172.499 372.375 172.499 372.134C172.499 371.894 172.405 371.663 172.237 371.491C172.14 371.404 172.026 371.337 171.903 371.294C171.78 371.25 171.65 371.232 171.52 371.239H168.953V373.02H171.52Z" fill="white"/>
<path d="M185.051 373.9C184.007 374.827 182.659 375.339 181.263 375.339C179.866 375.339 178.518 374.827 177.474 373.9C176.51 372.918 175.97 371.597 175.97 370.22C175.97 368.844 176.51 367.523 177.474 366.541C178.518 365.614 179.866 365.102 181.263 365.102C182.659 365.102 184.007 365.614 185.051 366.541C186.012 367.525 186.549 368.845 186.549 370.22C186.549 371.596 186.012 372.916 185.051 373.9ZM181.267 373.084C181.631 373.098 181.994 373.032 182.329 372.891C182.665 372.75 182.966 372.537 183.211 372.268C183.691 371.693 183.953 370.969 183.953 370.22C183.953 369.472 183.691 368.747 183.211 368.173C182.956 367.914 182.652 367.709 182.318 367.569C181.983 367.429 181.623 367.357 181.26 367.357C180.897 367.357 180.537 367.429 180.203 367.569C179.868 367.709 179.564 367.914 179.309 368.173C178.829 368.747 178.567 369.472 178.567 370.22C178.567 370.969 178.829 371.693 179.309 372.268C179.557 372.538 179.86 372.751 180.198 372.892C180.536 373.033 180.901 373.098 181.267 373.084Z" fill="white"/>
<path d="M190.378 375.161H187.826V365.269H195.081V367.495H190.378V375.161Z" fill="white"/>
<path d="M205.022 373.9C203.978 374.827 202.63 375.339 201.233 375.339C199.837 375.339 198.489 374.827 197.445 373.9C196.481 372.918 195.941 371.597 195.941 370.22C195.941 368.844 196.481 367.523 197.445 366.541C198.489 365.614 199.837 365.102 201.233 365.102C202.63 365.102 203.978 365.614 205.022 366.541C205.983 367.525 206.52 368.845 206.52 370.22C206.52 371.596 205.983 372.916 205.022 373.9ZM201.238 373.084C201.602 373.098 201.965 373.032 202.3 372.891C202.636 372.75 202.937 372.537 203.182 372.268C203.662 371.693 203.924 370.969 203.924 370.22C203.924 369.472 203.662 368.747 203.182 368.173C202.927 367.914 202.624 367.709 202.289 367.569C201.954 367.429 201.594 367.357 201.231 367.357C200.868 367.357 200.509 367.429 200.174 367.569C199.839 367.709 199.535 367.914 199.28 368.173C198.8 368.747 198.538 369.472 198.538 370.22C198.538 370.969 198.8 371.693 199.28 372.268C199.528 372.538 199.831 372.751 200.169 372.892C200.507 373.033 200.872 373.098 201.238 373.084Z" fill="white"/>
<path d="M216.432 375.339C215.017 375.385 213.641 374.869 212.604 373.905C211.628 372.925 211.08 371.598 211.08 370.215C211.08 368.832 211.628 367.505 212.604 366.525C213.647 365.565 215.025 365.053 216.442 365.101C217.345 365.059 218.24 365.29 219.01 365.763C219.78 366.237 220.39 366.932 220.76 367.757L218.564 368.796C218.387 368.381 218.095 368.026 217.723 367.772C217.351 367.501 216.902 367.355 216.442 367.356C216.073 367.347 215.706 367.415 215.365 367.556C215.025 367.698 214.717 367.909 214.464 368.177C213.963 368.739 213.687 369.465 213.687 370.218C213.687 370.97 213.963 371.696 214.464 372.258C214.716 372.527 215.023 372.74 215.364 372.883C215.705 373.025 216.073 373.093 216.442 373.084C216.902 373.085 217.351 372.939 217.723 372.668C218.095 372.414 218.387 372.059 218.564 371.644L220.76 372.683C220.381 373.438 219.822 374.089 219.132 374.577C218.337 375.113 217.39 375.38 216.432 375.339Z" fill="white"/>
<path d="M221.284 375.339V373.083C221.513 373.09 221.74 373.038 221.943 372.933C222.147 372.827 222.32 372.671 222.446 372.48C222.817 371.802 223.033 371.051 223.079 370.279L223.673 365.264H231.047V375.156H228.495V367.49H225.973L225.616 370.457C225.53 371.29 225.34 372.109 225.053 372.895C224.847 373.462 224.508 373.971 224.064 374.379C223.697 374.7 223.27 374.944 222.807 375.096C222.315 375.254 221.801 375.336 221.284 375.339Z" fill="white"/>
<path d="M240.068 375.161H232.793V365.269H240.048V367.495H235.345V369.038H239.944V371.263H235.345V372.94H240.048L240.068 375.161Z" fill="white"/>
<path d="M243.629 375.161H240.513L244.564 369.893L240.721 365.264H243.852L246.582 368.914V365.264H249.114V368.899L251.829 365.264H254.96L251.132 369.893L255.182 375.161H252.081L249.47 371.436L249.144 371.852V375.161H246.591V371.882L246.25 371.436L243.629 375.161Z" fill="white"/>
<path d="M263.185 375.161H255.929V365.269H263.185V367.495H258.481V369.038H263.081V371.263H258.481V372.94H263.185V375.161Z" fill="white"/>
<path d="M273.868 375.161H271.316V371.204H267.206V375.161H264.654V365.269H267.206V368.964H271.316V365.269H273.868V375.161Z" fill="white"/>
<path d="M278.096 375.161H275.623V365.269H278.175V371.1L282.181 365.269H284.822V375.161H282.25V369.048L278.096 375.161Z" fill="white"/>
<path d="M289.106 375.16H286.208L288.225 371.525C287.666 371.328 287.178 370.97 286.821 370.496C286.412 369.935 286.206 369.251 286.237 368.558C286.223 368.122 286.298 367.689 286.457 367.283C286.616 366.877 286.856 366.508 287.162 366.199C287.498 365.878 287.896 365.63 288.332 365.47C288.767 365.309 289.231 365.239 289.694 365.264H294.64V375.155H292.073V371.842H290.768L289.106 375.16ZM290.041 369.611H292.058V367.489H290.041C289.726 367.479 289.418 367.578 289.17 367.771C289.056 367.864 288.965 367.982 288.905 368.116C288.845 368.25 288.817 368.396 288.824 368.543C288.816 368.692 288.843 368.841 288.903 368.977C288.964 369.114 289.055 369.234 289.17 369.329C289.418 369.522 289.726 369.622 290.041 369.611Z" fill="white"/>
<path d="M303.76 375.339C302.903 375.35 302.051 375.204 301.247 374.909C300.585 374.686 299.991 374.298 299.521 373.781L300.812 372.045C301.19 372.397 301.643 372.658 302.137 372.807C302.631 372.983 303.151 373.077 303.676 373.084C304.136 373.108 304.595 373.016 305.011 372.817C305.151 372.76 305.273 372.664 305.36 372.541C305.448 372.417 305.498 372.271 305.505 372.119C305.507 371.982 305.465 371.847 305.386 371.734C305.307 371.622 305.195 371.537 305.065 371.491C304.589 371.325 304.085 371.256 303.581 371.288H301.539V369.048H303.557C304.719 369.048 305.308 368.791 305.308 368.277C305.304 368.127 305.255 367.981 305.166 367.86C305.078 367.739 304.955 367.648 304.813 367.599C304.397 367.433 303.95 367.356 303.502 367.371C302.538 367.344 301.6 367.684 300.876 368.321L299.645 366.719C300.122 366.203 300.713 365.805 301.371 365.556C302.134 365.255 302.949 365.105 303.769 365.116C304.81 365.066 305.842 365.324 306.737 365.858C307.078 366.062 307.36 366.352 307.555 366.699C307.749 367.046 307.849 367.438 307.845 367.836C307.849 368.114 307.795 368.39 307.686 368.646C307.577 368.901 307.416 369.131 307.212 369.32C306.794 369.73 306.258 369.999 305.679 370.087C306.277 370.15 306.839 370.401 307.286 370.804C307.519 371.004 307.705 371.255 307.83 371.536C307.955 371.817 308.016 372.123 308.008 372.431C308.007 372.858 307.895 373.277 307.683 373.648C307.472 374.019 307.168 374.329 306.801 374.548C305.89 375.111 304.83 375.387 303.76 375.339Z" fill="white"/>
<path d="M319.033 375.161H316.139L315.645 373.736H311.743L311.248 375.161H308.355L312.079 365.269H315.284L319.033 375.161ZM314.952 371.511L313.691 367.786L312.43 371.511H314.952Z" fill="white"/>
<path d="M328.286 375.161H325.734V367.49H322.964V365.264H331.046V367.49H328.286V375.161Z" fill="white"/>
<path d="M334.8 375.161H332.248V365.269H337.194C337.655 365.244 338.117 365.314 338.551 365.476C338.984 365.637 339.379 365.887 339.711 366.209C340.015 366.519 340.254 366.888 340.413 367.292C340.572 367.697 340.647 368.129 340.636 368.563C340.647 368.995 340.57 369.424 340.411 369.825C340.253 370.226 340.014 370.591 339.711 370.898C339.38 371.221 338.985 371.472 338.552 371.635C338.118 371.798 337.656 371.868 337.194 371.842H334.785L334.8 375.161ZM336.862 369.612C337.172 369.624 337.476 369.524 337.718 369.33C337.829 369.235 337.917 369.117 337.975 368.983C338.033 368.849 338.06 368.704 338.054 368.558C338.061 368.41 338.034 368.263 337.975 368.127C337.917 367.991 337.829 367.869 337.718 367.772C337.476 367.578 337.172 367.478 336.862 367.49H334.8V369.612H336.862Z" fill="white"/>
<path d="M351.388 375.161H348.495L348 373.736H344.098L343.603 375.161H340.71L344.434 365.269H347.639L351.388 375.161ZM347.308 371.511L346.046 367.786L344.785 371.511H347.308Z" fill="white"/>
<path d="M361.314 375.161H358.762V371.204H354.652V375.161H352.1V365.269H354.652V368.964H358.762V365.269H361.314V375.161Z" fill="white"/>
<path d="M367.931 375.339C366.516 375.385 365.14 374.869 364.103 373.905C363.126 372.925 362.577 371.598 362.577 370.215C362.577 368.832 363.126 367.505 364.103 366.525C365.144 365.565 366.521 365.054 367.936 365.101C368.84 365.059 369.735 365.29 370.505 365.763C371.275 366.237 371.884 366.932 372.254 367.757L370.058 368.796C369.884 368.381 369.594 368.026 369.222 367.772C368.848 367.501 368.398 367.355 367.936 367.356C367.567 367.346 367.2 367.414 366.859 367.555C366.518 367.697 366.211 367.909 365.958 368.177C365.454 368.738 365.176 369.464 365.176 370.218C365.176 370.971 365.454 371.697 365.958 372.258C366.21 372.528 366.517 372.741 366.858 372.883C367.199 373.026 367.567 373.094 367.936 373.084C368.398 373.085 368.848 372.939 369.222 372.668C369.594 372.414 369.884 372.059 370.058 371.644L372.254 372.683C371.877 373.438 371.32 374.088 370.632 374.577C369.836 375.112 368.89 375.379 367.931 375.339Z" fill="white"/>
<path d="M382.547 375.161H379.994V367.49H375.885V375.161H373.333V365.269H382.547V375.161Z" fill="white"/>
<path d="M392.888 373.9C391.845 374.827 390.498 375.34 389.102 375.34C387.706 375.34 386.359 374.827 385.316 373.9C384.35 372.919 383.808 371.597 383.808 370.22C383.808 368.843 384.35 367.521 385.316 366.54C386.359 365.613 387.706 365.101 389.102 365.101C390.498 365.101 391.845 365.613 392.888 366.54C393.849 367.524 394.387 368.845 394.387 370.22C394.387 371.595 393.849 372.916 392.888 373.9ZM389.105 373.084C389.468 373.097 389.831 373.031 390.167 372.89C390.502 372.749 390.803 372.537 391.048 372.268C391.528 371.693 391.791 370.968 391.791 370.22C391.791 369.472 391.528 368.747 391.048 368.173C390.793 367.914 390.49 367.709 390.155 367.569C389.82 367.428 389.46 367.356 389.097 367.356C388.734 367.356 388.375 367.428 388.04 367.569C387.705 367.709 387.401 367.914 387.146 368.173C386.667 368.747 386.404 369.472 386.404 370.22C386.404 370.968 386.667 371.693 387.146 372.268C387.394 372.538 387.697 372.751 388.035 372.892C388.374 373.032 388.739 373.098 389.105 373.084Z" fill="white"/>
<path d="M398.214 375.161H395.662V365.269H400.608C401.07 365.244 401.533 365.314 401.967 365.476C402.401 365.637 402.797 365.887 403.13 366.209C403.433 366.52 403.671 366.888 403.829 367.293C403.987 367.697 404.062 368.129 404.05 368.563C404.062 368.994 403.987 369.423 403.829 369.824C403.67 370.225 403.433 370.591 403.13 370.898C402.798 371.221 402.403 371.473 401.968 371.635C401.534 371.798 401.071 371.868 400.608 371.842H398.204L398.214 375.161ZM400.276 369.612C400.586 369.624 400.89 369.524 401.132 369.33C401.243 369.235 401.33 369.116 401.387 368.982C401.445 368.849 401.471 368.704 401.464 368.558C401.47 368.411 401.444 368.264 401.387 368.127C401.33 367.991 401.243 367.87 401.132 367.772C400.89 367.578 400.586 367.478 400.276 367.49H398.214V369.612H400.276Z" fill="white"/>
<path d="M409.951 375.161H407.379V367.49H404.604V365.264H412.691V367.49H409.931L409.951 375.161Z" fill="white"/>
<path d="M422.488 373.9C421.445 374.827 420.098 375.34 418.702 375.34C417.307 375.34 415.959 374.827 414.916 373.9C413.95 372.919 413.408 371.597 413.408 370.22C413.408 368.843 413.95 367.521 414.916 366.54C415.959 365.613 417.307 365.101 418.702 365.101C420.098 365.101 421.445 365.613 422.488 366.54C423.449 367.524 423.987 368.845 423.987 370.22C423.987 371.595 423.449 372.916 422.488 373.9ZM418.705 373.084C419.069 373.097 419.431 373.031 419.767 372.89C420.102 372.749 420.403 372.537 420.649 372.268C421.128 371.693 421.391 370.968 421.391 370.22C421.391 369.472 421.128 368.747 420.649 368.173C420.394 367.914 420.09 367.709 419.755 367.569C419.42 367.428 419.06 367.356 418.697 367.356C418.334 367.356 417.975 367.428 417.64 367.569C417.305 367.709 417.001 367.914 416.746 368.173C416.267 368.747 416.004 369.472 416.004 370.22C416.004 370.968 416.267 371.693 416.746 372.268C416.994 372.538 417.297 372.751 417.636 372.892C417.974 373.032 418.339 373.098 418.705 373.084Z" fill="white"/>
<path d="M436.495 375.161H433.943V368.731L431.435 375.161H430.308L427.835 368.731V375.161H425.283V365.269H428.829L430.891 370.64L432.968 365.269H436.515L436.495 375.161Z" fill="white"/>
<defs>
<linearGradient id="paint0_linear_520_1607" x1="266.008" y1="113.892" x2="188.723" y2="36.6062" gradientUnits="userSpaceOnUse">
<stop offset="0.3" stop-color="#CDE99C"/>
<stop offset="0.59" stop-color="#E7F8CC"/>
<stop offset="0.81" stop-color="#F6FFE6"/>
<stop offset="1" stop-color="#F8FFEB"/>
</linearGradient>
<linearGradient id="paint1_linear_520_1607" x1="310.856" y1="213.575" x2="87.368" y2="38.4252" gradientUnits="userSpaceOnUse">
<stop offset="0.06" stop-color="#9CD2E9"/>
<stop offset="0.14" stop-color="#C8E8F7"/>
<stop offset="0.18" stop-color="#D7EFFB"/>
<stop offset="0.27" stop-color="#E2F6FF"/>
<stop offset="0.4" stop-color="#E5F8FF"/>
<stop offset="0.47" stop-color="#CCEAF8"/>
<stop offset="0.54" stop-color="#9CD2E9"/>
<stop offset="0.72" stop-color="#9CD2E9"/>
<stop offset="0.82" stop-color="#CBEAF8"/>
<stop offset="0.9" stop-color="#E6F8FF"/>
<stop offset="1" stop-color="#EBFAFF"/>
</linearGradient>
<linearGradient id="paint2_linear_520_1607" x1="229.216" y1="229.232" x2="136.631" y2="136.646" gradientUnits="userSpaceOnUse">
<stop offset="0.3" stop-color="#CDE99C"/>
<stop offset="0.59" stop-color="#E7F8CC"/>
<stop offset="0.81" stop-color="#F6FFE6"/>
<stop offset="1" stop-color="#F8FFEB"/>
</linearGradient>
<linearGradient id="paint3_linear_520_1607" x1="289.994" y1="-20.691" x2="170.406" y2="223.764" gradientUnits="userSpaceOnUse">
<stop stop-color="#B0DB2E"/>
<stop offset="0.26" stop-color="#A0D127"/>
<stop offset="0.78" stop-color="#77B516"/>
<stop offset="0.82" stop-color="#73B314"/>
</linearGradient>
<linearGradient id="paint4_linear_520_1607" x1="356.218" y1="91.1475" x2="116.716" y2="91.1475" gradientUnits="userSpaceOnUse">
<stop stop-color="#2C8CD5"/>
<stop offset="0.43" stop-color="#57B8EA"/>
<stop offset="0.8" stop-color="#75D7F9"/>
<stop offset="1" stop-color="#81E3FF"/>
</linearGradient>
<linearGradient id="paint5_linear_520_1607" x1="299.236" y1="-16.1687" x2="179.648" y2="228.276" gradientUnits="userSpaceOnUse">
<stop stop-color="#B0DB2E"/>
<stop offset="0.26" stop-color="#A0D127"/>
<stop offset="0.78" stop-color="#77B516"/>
<stop offset="0.82" stop-color="#73B314"/>
</linearGradient>
<linearGradient id="paint6_linear_520_1607" x1="144.78" y1="121.569" x2="247.828" y2="184.207" gradientUnits="userSpaceOnUse">
<stop stop-color="#B0DB2E"/>
<stop offset="0.32" stop-color="#A0D127"/>
<stop offset="0.95" stop-color="#77B516"/>
<stop offset="1" stop-color="#73B314"/>
</linearGradient>
<linearGradient id="paint7_linear_520_1607" x1="206.399" y1="10.0656" x2="286.408" y2="87.0044" gradientUnits="userSpaceOnUse">
<stop stop-color="#BAED2E"/>
<stop offset="0.28" stop-color="#AADD28"/>
<stop offset="0.84" stop-color="#81B419"/>
<stop offset="1" stop-color="#73A614"/>
</linearGradient>
<linearGradient id="paint8_linear_520_1607" x1="93.8138" y1="10.0767" x2="356.733" y2="187.697" gradientUnits="userSpaceOnUse">
<stop stop-color="#BAF5FF"/>
<stop offset="0.1" stop-color="#B7F3FE"/>
<stop offset="0.16" stop-color="#AFEEFC"/>
<stop offset="0.21" stop-color="#A0E5F9"/>
<stop offset="0.25" stop-color="#8BD9F4"/>
<stop offset="0.29" stop-color="#71C9EE"/>
<stop offset="0.33" stop-color="#4FB5E6"/>
<stop offset="0.72" stop-color="#81E3FF"/>
<stop offset="0.93" stop-color="#2C8CD5"/>
</linearGradient>
</defs>
</svg>
